# xmcd
#
# Track frame offsets:
# 150
# 11334
# 24252
# 35423
# 44709
# 56029
# 65513
# 77074
# 88858
# 103340
# 120375
# 132369
# 142445
# 154768
# 166013
# 175219
# 185763
# 196317
# 206618
# 219438
# 231326
# 243929
# 255887
# 271227
#
# Disc length: 3752 seconds
#
# Revision: 0
# Processed by: cddbd v1.5PL3 Copyright (c) Steve Scherf et al.
# Submitted via: Axialis_AX_CDPlayer 2.6
#
DISCID=560ea618
DTITLE=The Louvin Brothers - When I Stop Dreaming - The Best Of The Louvin B
DTITLE=rothers
DYEAR=1900
DGENRE=
TTITLE0=Broadminded
TTITLE1=The Family Who Prays
TTITLE2=When I Stop Dreaming
TTITLE3=Pitfall
TTITLE4=Don't Laugh
TTITLE5=I Don't Believe You've Met My Baby
TTITLE6=Hoping That You're Hoping
TTITLE7=The First One To Love You
TTITLE8=In The Pines
TTITLE9=Knoxville Girl
TTITLE10=Cash On The Barrelhead
TTITLE11=You're Running Wild
TTITLE12=My Baby's Gone
TTITLE13=I Wish It Had Been A Dream
TTITLE14=While You're Cheating On Me
TTITLE15=If I Could Only Win Your Love
TTITLE16=You're Learning
TTITLE17=The River Of Jordan
TTITLE18=The Kneeling Drunkard's Plea
TTITLE19=Southern Moon
TTITLE20=Gonna Lay Down My Old Guitar
TTITLE21=The Great Atomic Power
TTITLE22=Wreck On The Highway
TTITLE23=Stuck Up Blues
EXTD=
EXTT0=
EXTT1=
EXTT2=
EXTT3=
EXTT4=
EXTT5=
EXTT6=
EXTT7=
EXTT8=
EXTT9=
EXTT10=
EXTT11=
EXTT12=
EXTT13=
EXTT14=
EXTT15=
EXTT16=
EXTT17=
EXTT18=
EXTT19=
EXTT20=
EXTT21=
EXTT22=
EXTT23=
PLAYORDER=
